<?xml version="1.0" encoding="utf-8"?>
<svg width="1440px" height="495px" version="1.1" viewBox="-3.00396728515625 -0.43535590171813965 512 512" xmlns="http://www.w3.org/2000/svg">
  <title>logo</title>
  <defs>
    <linearGradient x1="0.5" y1="0" x2="0.5" y2="1" id="linearGradient-1">
      <stop stop-color="#0070E5" offset="0"/>
      <stop stop-color="#003DC6" offset="1"/>
    </linearGradient>
  </defs>
  <g id="p-1" stroke="none" stroke-width="1" fill="none" fill-rule="evenodd" transform="matrix(0.976367, -0.002969, 0, 0.967331, 1.402902, 11.068409)">
    <g id="p-4" transform="translate(-240.000000, -293.000000)">
      <g id="p" transform="translate(240.000000, 293.000000)">
        <path d="M222.999471,200.999471 L222.999471,494.528471 L11.2197334,282.748737 C-2.44861685,269.080387 -2.44861685,246.919613 11.2197334,233.251263 L43.4704707,200.999471 L222.999471,200.999471 Z M472.528471,200.999471 L504.780267,233.251263 C518.448617,246.919613 518.448617,269.080387 504.780267,282.748737 L292.999471,494.528471 L292.999471,200.999471 L472.528471,200.999471 Z M282.748737,11.2197334 L402.528471,130.999471 L113.470471,130.999471 L233.251263,11.2197334 C246.919613,-2.44861685 269.080387,-2.44861685 282.748737,11.2197334 Z" id="p" fill="url(#linearGradient-1)"/>
      </g>
    </g>
  </g>
</svg>